<svg width="64" height="58" xmlns="http://www.w3.org/2000/svg" xmlns:xlink="http://www.w3.org/1999/xlink" overflow="hidden"><defs><clipPath id="clip0"><rect x="3890" y="374" width="64" height="58"/></clipPath></defs><g clip-path="url(#clip0)" transform="translate(-3890 -374)"><path d="M3891.5 375.5 3899.64 375.5 3908.6 420.5 3945.5 420.5" stroke="#000000" stroke-width="3.4375" stroke-linecap="round" stroke-linejoin="round" stroke-miterlimit="10" fill="none" fill-rule="evenodd"/><path d="M3902.5 387.5 3952.5 387.5 3947.64 410.5 3906.82 410.5" stroke="#000000" stroke-width="3.4375" stroke-linecap="round" stroke-linejoin="round" stroke-miterlimit="10" fill="none" fill-rule="evenodd"/><path d="M3906.5 425.5C3906.5 422.738 3908.74 420.5 3911.5 420.5 3914.26 420.5 3916.5 422.738 3916.5 425.5 3916.5 428.261 3914.26 430.5 3911.5 430.5 3908.74 430.5 3906.5 428.261 3906.5 425.5Z" stroke="#000000" stroke-width="3.4375" stroke-linecap="round" stroke-linejoin="round" stroke-miterlimit="10" fill="none" fill-rule="evenodd"/><path d="M3939.5 425.5C3939.5 422.738 3941.74 420.5 3944.5 420.5 3947.26 420.5 3949.5 422.738 3949.5 425.5 3949.5 428.261 3947.26 430.5 3944.5 430.5 3941.74 430.5 3939.5 428.261 3939.5 425.5Z" stroke="#000000" stroke-width="3.4375" stroke-linecap="round" stroke-linejoin="round" stroke-miterlimit="10" fill="none" fill-rule="evenodd"/></g></svg>