<svg width="61" height="55" xmlns="http://www.w3.org/2000/svg" xmlns:xlink="http://www.w3.org/1999/xlink" overflow="hidden"><defs><clipPath id="clip0"><rect x="163" y="168" width="61" height="55"/></clipPath></defs><g clip-path="url(#clip0)" transform="translate(-163 -168)"><path d="M193.46 179.529C193.73 179.557 194.37 177.476 195.96 175.315 197.54 173.155 199.74 171.258 202.43 170.406 205.12 169.555 209.28 169.294 212.12 170.205 214.97 171.116 217.76 173.382 219.48 175.873 221.21 178.364 222.39 181.813 222.49 185.151 222.59 188.489 222.11 191.765 220.09 195.901 218.07 200.037 214.93 203.237 211.72 206.678 208.52 210.12 203.58 214.243 200.87 216.551 198.16 218.859 196.7 219.703 195.46 220.527 194.22 221.351 194.13 221.53 193.45 221.496 192.76 221.463 192.52 221.126 191.35 220.326 190.18 219.526 188.77 218.635 186.42 216.697 184.07 214.759 180.54 212.268 177.25 208.699 173.97 205.129 168.98 200.405 166.71 195.279 164.44 190.154 164.02 185.777 164.98 181.787 165.95 177.797 168.31 174.005 172.47 171.339 176.63 168.673 180.84 169.497 183.94 170.178 187.05 170.859 190.08 173.684 191.12 175.425 192.16 177.166 193.2 179.502 193.46 179.529Z" stroke="#000000" stroke-width="3.4375" stroke-miterlimit="8" fill="#DECAB8" fill-rule="evenodd"/></g></svg>