<svg width="61" height="55" xmlns="http://www.w3.org/2000/svg" xmlns:xlink="http://www.w3.org/1999/xlink" overflow="hidden"><defs><clipPath id="clip0"><rect x="3756" y="377" width="61" height="55"/></clipPath></defs><g clip-path="url(#clip0)" transform="translate(-3756 -377)"><path d="M3786.46 388.529C3786.73 388.557 3787.37 386.476 3788.96 384.315 3790.54 382.155 3792.74 380.258 3795.43 379.406 3798.12 378.555 3802.28 378.294 3805.12 379.205 3807.97 380.116 3810.76 382.382 3812.48 384.873 3814.21 387.364 3815.39 390.813 3815.49 394.151 3815.59 397.489 3815.11 400.765 3813.09 404.901 3811.07 409.037 3807.93 412.237 3804.72 415.678 3801.52 419.12 3796.58 423.243 3793.87 425.551 3791.16 427.859 3789.7 428.703 3788.46 429.527 3787.22 430.351 3787.13 430.53 3786.45 430.496 3785.76 430.463 3785.52 430.126 3784.35 429.326 3783.18 428.526 3781.77 427.635 3779.42 425.697 3777.07 423.759 3773.54 421.268 3770.25 417.699 3766.97 414.129 3761.98 409.405 3759.71 404.279 3757.44 399.154 3757.02 394.777 3757.98 390.787 3758.95 386.797 3761.31 383.005 3765.47 380.339 3769.63 377.673 3773.84 378.497 3776.94 379.178 3780.05 379.859 3783.08 382.684 3784.12 384.425 3785.16 386.166 3786.2 388.502 3786.46 388.529Z" stroke="#000000" stroke-width="3.4375" stroke-miterlimit="8" fill="none" fill-rule="evenodd"/></g></svg>