<svg width="275" height="169" xmlns="http://www.w3.org/2000/svg" xmlns:xlink="http://www.w3.org/1999/xlink" overflow="hidden"><defs><clipPath id="clip0"><rect x="594" y="187" width="275" height="169"/></clipPath><clipPath id="clip1"><rect x="234" y="187" width="633" height="169"/></clipPath><clipPath id="clip2"><rect x="120" y="109" width="747" height="403"/></clipPath><clipPath id="clip3"><rect x="120" y="109" width="747" height="403"/></clipPath></defs><g clip-path="url(#clip0)" transform="translate(-594 -187)"><g clip-path="url(#clip1)"><g clip-path="url(#clip2)"><g clip-path="url(#clip3)"><text font-family="Moggly,Moggly_MSFontService,sans-serif" font-weight="400" font-size="220" transform="matrix(0.866449 0 0 0.866927 235.363 325)">Horek</text><path d="M1608.11 385.897C1607.72 385.618 1607.35 385.786 1606.34 386.096 1605.33 386.406 1606.16 386.188 1602.02 387.759L1581.62 395.522 1577.33 397.102 1577.23 399.292C1577.13 402.832 1579.01 408.191 1576.93 413.376 1574.84 418.561 1569.78 425.886 1564.72 430.399 1559.66 434.912 1553.6 438.484 1546.57 440.453 1539.52 442.423 1529.24 442.848 1522.47 442.22 1515.67 441.591 1508.9 439.91 1505.88 436.683L1505.83 436.557 1504.04 437.724C1502.69 438.621 1501.74 439.38 1501.5 440.139 1501.03 441.657 1503.44 442.388 1506.19 443.596 1508.95 444.803 1514.08 446.545 1518.06 447.383 1522.02 448.221 1524.73 448.636 1529.98 448.623 1535.22 448.609 1542.99 448.556 1549.52 447.299 1556.04 446.042 1564.24 443.074 1569.09 441.082 1573.94 439.089 1574.98 438.076 1578.62 435.345 1582.26 432.614 1587.65 427.928 1590.94 424.695 1594.21 421.462 1596.01 419.182 1598.3 415.947 1600.58 412.712 1603.06 408.792 1604.62 405.283 1606.19 401.774 1606.99 398.314 1607.67 395.568 1608.36 392.821 1608.65 390.415 1608.72 388.804 1608.8 387.192 1608.5 386.176 1608.11 385.897ZM1732.97 340.658C1730.41 340.508 1724.25 342.627 1719 345.172 1713.75 347.718 1705.72 353.019 1701.48 355.931 1697.24 358.843 1695.85 360.649 1693.58 362.643 1691.31 364.637 1689.02 366.309 1687.87 367.895 1686.73 369.481 1685.99 371.645 1686.7 372.158 1687.42 372.672 1688.94 373.158 1690.51 373.734 1692.06 374.311 1693.98 375.707 1696.07 375.62 1698.15 375.533 1699.38 375.132 1703.04 373.212 1706.7 371.294 1713.78 367.19 1718.06 364.101 1722.34 361.011 1725.99 357.68 1728.7 354.674 1731.42 351.669 1733.62 348.404 1734.33 346.068 1735.05 343.731 1735.52 340.807 1732.97 340.658ZM1732.46 331.423C1739.03 330.008 1741.12 332.26 1743.09 334.565 1745.08 336.869 1745.6 340.954 1744.35 345.248 1743.09 349.542 1740.29 355.543 1735.59 360.33 1730.89 365.117 1721.23 370.882 1716.16 373.972 1711.1 377.062 1708.1 378.034 1705.23 378.868L1714.62 381.382C1714.62 381.382 1722.61 383.372 1725.58 384.21 1728.55 385.048 1731.98 386.199 1734.31 388.271 1736.64 390.344 1738.84 394.077 1739.56 396.646 1740.27 399.215 1740.83 401.933 1738.61 403.683 1736.38 405.433 1735.25 406.57 1726.2 407.148 1717.14 407.725 1688.1 407.312 1684.26 407.148 1680.42 406.982 1677.57 406.84 1675.5 407.148 1673.42 407.454 1666.72 410.915 1658.94 413.952L1628.87 425.371C1619.24 428.987 1609.59 432.108 1601.18 435.641 1592.77 439.174 1584.09 443.307 1578.43 446.57 1572.76 449.833 1569.82 452.609 1567.22 455.222 1564.61 457.834 1564.4 459.107 1562.83 462.249 1561.26 465.391 1560.33 470.548 1557.83 474.074 1555.33 477.598 1551.47 480.363 1547.82 483.4 1544.16 486.438 1539.57 490.92 1535.93 492.297 1532.27 493.676 1528.36 492.823 1525.91 491.67 1523.46 490.517 1521.78 488.15 1521.22 485.378 1520.66 482.605 1521.88 478.069 1522.56 475.032 1523.24 471.995 1524.15 469.567 1525.29 467.154 1526.42 464.741 1528.39 462.377 1529.35 460.554 1530.31 458.734 1531.32 456.955 1531.06 456.224 1530.8 455.492 1529.74 455.598 1527.79 456.164 1525.83 456.73 1522.2 458.361 1519.34 459.62 1516.48 460.88 1513.85 462.726 1510.67 463.721 1507.48 464.715 1503.99 465.56 1500.25 465.59 1496.51 465.621 1491.32 464.953 1488.19 463.905 1485.06 462.855 1482.65 461.336 1481.49 459.298 1480.33 457.261 1480.78 453.827 1481.24 451.681 1481.71 449.535 1482.79 448.178 1484.28 446.423 1485.78 444.668 1487.96 442.991 1490.23 441.15 1492.51 439.308 1495.1 437.529 1497.97 435.372 1499.4 434.291 1500.81 433.334 1502.34 432.23L1503.76 431.118 1503.53 430.543C1503.37 428.152 1503.74 425.502 1504.32 422.858 1505.46 417.569 1507.97 410.955 1512.76 404.948 1517.55 398.94 1525.79 394.441 1527.47 393.636 1529.16 392.833 1528.68 392.77 1529.66 391.438 1530.66 390.104 1532.44 387.052 1533.42 385.638 1534.42 384.225 1536.65 382.479 1538.39 381.505 1540.13 380.531 1540.92 379.777 1543.87 379.794 1546.82 379.811 1547.13 380.87 1548.16 381.605 1549.2 382.339 1549.59 383.088 1550.11 384.202 1550.63 385.317 1551.12 387.036 1551.26 388.294 1551.4 389.553 1550.97 391.276 1550.95 391.751 1550.93 392.227 1554.19 392.798 1555.44 393.008 1556.69 393.218 1557.57 393.84 1558.46 393.008 1559.34 392.176 1559.89 389.588 1560.72 388.017 1561.56 386.447 1562.89 384.122 1564.39 382.755 1565.89 381.386 1567.89 380.11 1569.72 379.811 1571.55 379.513 1574.06 379.866 1575.37 380.967 1576.68 382.066 1577.19 384.549 1577.55 386.409L1577.55 387.175 1580.05 386.096 1610.72 375.098C1610.72 375.098 1636.23 365.461 1644.83 362.529 1653.43 359.597 1656.25 358.34 1662.36 357.502 1668.46 356.664 1677.37 357.868 1681.45 357.502 1685.52 357.136 1683.07 357.712 1686.76 355.303 1690.47 352.894 1696.06 347.028 1703.66 343.049 1711.28 339.068 1725.89 332.836 1732.46 331.423Z" fill="#614225" fill-rule="evenodd" transform="matrix(1 0 0 1.00055 -879.141 -140.576)"/></g></g></g></g></svg>