<svg width="403" height="394" xmlns="http://www.w3.org/2000/svg" xmlns:xlink="http://www.w3.org/1999/xlink" overflow="hidden"><defs><clipPath id="clip0"><rect x="887" y="-11" width="403" height="394"/></clipPath><clipPath id="clip1"><rect x="887" y="-6" width="403" height="390"/></clipPath><clipPath id="clip2"><rect x="755" y="-6" width="643" height="596"/></clipPath><clipPath id="clip3"><rect x="755" y="-6" width="643" height="596"/></clipPath></defs><g clip-path="url(#clip0)" transform="translate(-887 11)"><g clip-path="url(#clip1)"><g clip-path="url(#clip2)"><g clip-path="url(#clip3)"><text font-family="Moggly,Moggly_MSFontService,sans-serif" font-weight="400" font-size="220" transform="matrix(0.999563 0 0 0.999389 888.472 376)">Horek</text><path d="M985.624 771.798C989.716 770.609 994.005 769.223 1001.22 764.821 1008.43 760.419 1022.2 752.205 1028.9 745.384 1035.6 738.562 1039.61 730.012 1041.39 723.894 1043.18 717.776 1042.44 711.955 1039.61 708.672 1036.79 705.389 1033.81 702.181 1024.44 704.196 1015.07 706.211 994.251 715.089 983.393 720.76 972.536 726.432 964.579 734.788 959.299 738.22 954.019 741.653 957.514 740.832 951.715 741.354 945.914 741.877 933.198 740.16 924.497 741.354 915.797 742.549 911.781 744.339 899.511 748.517 887.241 752.695 850.877 766.425 850.877 766.425L807.151 782.095C797.559 785.75 802.318 784.557 793.32 788.363 784.322 792.167 764.913 799.032 753.163 804.927 741.414 810.822 731.078 817.537 722.824 823.73 714.569 829.923 709.088 837.323 703.638 842.086 698.187 846.848 694.212 849.228 690.122 852.305 686.032 855.38 682.348 857.913 679.098 860.538 675.848 863.163 672.755 865.55 670.62 868.052 668.485 870.552 666.952 872.486 666.288 875.543 665.625 878.6 664.989 883.493 666.638 886.396 668.287 889.299 671.726 891.465 676.182 892.959 680.639 894.453 688.034 895.404 693.376 895.361 698.716 895.317 703.693 894.115 708.23 892.697 712.766 891.28 716.524 888.649 720.592 886.854 724.661 885.06 729.855 882.737 732.64 881.93 735.423 881.124 736.926 880.973 737.298 882.016 737.67 883.059 736.242 885.591 734.87 888.187 733.499 890.782 730.684 894.15 729.07 897.588 727.456 901.027 726.151 904.487 725.184 908.814 724.218 913.142 722.473 919.603 723.269 923.555 724.066 927.506 726.468 930.876 729.962 932.52 733.457 934.163 739.035 935.379 744.24 933.415 749.445 931.451 755.99 925.065 761.195 920.738 766.4 916.41 771.905 912.472 775.473 907.449 779.04 902.426 780.37 895.077 782.6 890.6 784.832 886.124 785.151 884.311 788.858 880.587 792.565 876.864 796.773 872.91 804.843 868.261 812.912 863.611 825.287 857.722 837.273 852.688 849.258 847.654 863.029 843.206 876.756 838.056L919.634 821.786C930.714 817.459 940.276 812.527 943.237 812.09 946.198 811.652 950.263 811.854 955.73 812.09 961.197 812.326 1002.61 812.913 1015.52 812.09 1028.43 811.268 1030.04 809.648 1033.22 807.154 1036.39 804.661 1035.59 800.788 1034.57 797.128 1033.55 793.469 1030.41 788.148 1027.08 785.195 1023.76 782.241 1018.87 780.602 1014.63 779.408 1010.39 778.215 999.01 775.38 999.01 775.38L985.624 771.798Z" fill="#614225" fill-rule="evenodd" transform="matrix(1.00017 0 0 1 244.043 -708.915)"/><path d="M845.051 782.004C843.598 782.442 844.785 782.134 838.874 784.357L809.586 795.339C798.708 799.542 787.453 802.755 773.612 809.571 759.769 816.388 737.897 829.423 726.534 836.237 715.17 843.053 710.746 846.758 705.434 850.463 700.122 854.167 695.333 856.316 694.66 858.465 693.986 860.613 697.436 861.647 701.394 863.355 705.352 865.063 712.719 867.527 718.405 868.713 724.091 869.898 727.991 870.486 735.512 870.467 743.034 870.447 754.185 870.373 763.537 868.594 772.89 866.816 784.67 862.617 791.629 859.798 798.586 856.98 800.063 855.545 805.284 851.681 810.506 847.816 818.251 841.187 822.958 836.614 827.664 832.04 830.247 828.815 833.519 824.238 836.791 819.661 840.346 814.114 842.591 809.15 844.835 804.186 845.978 799.291 846.958 795.404 847.936 791.519 848.359 788.115 848.465 785.834 848.571 783.555 848.149 782.117 847.592 781.723 847.036 781.328 846.504 781.565 845.051 782.004Z" fill="#FFFFFF" fill-rule="evenodd" transform="matrix(1.00017 0 0 1 244.043 -708.915)"/><path d="M961.469 756.488C963.097 754.223 966.359 751.833 969.584 748.984 972.809 746.135 974.792 743.554 980.82 739.394 986.848 735.233 998.284 727.659 1005.75 724.021 1013.22 720.384 1021.98 717.358 1025.62 717.572 1029.26 717.785 1028.58 721.963 1027.57 725.301 1026.55 728.638 1023.41 733.304 1019.56 737.598 1015.7 741.892 1010.5 746.652 1004.42 751.067 998.331 755.481 988.262 761.342 983.046 764.086 977.83 766.829 976.093 767.401 973.12 767.524 970.146 767.649 967.421 765.656 965.203 764.831 962.986 764.007 960.827 763.313 959.814 762.579 958.8 761.846 959.84 758.755 961.469 756.488Z" fill="#FFFFFF" fill-rule="evenodd" transform="matrix(1.00017 0 0 1 244.043 -708.915)"/><path d="M803.981 790.326C803.906 793.403 803.68 795.51 803.531 800.583 803.383 805.656 806.086 813.334 803.088 820.762 800.089 828.19 792.814 838.685 785.543 845.151 778.272 851.616 769.58 856.734 759.46 859.556 749.34 862.378 734.565 862.987 724.822 862.087 715.078 861.186 705.344 858.778 700.998 854.154 696.653 849.53 697.1 841.924 698.75 834.347 700.398 826.768 704.012 817.294 710.891 808.686 717.77 800.078 729.609 793.631 732.028 792.48 734.447 791.328 733.75 791.239 735.176 789.329 736.601 787.419 739.156 783.047 740.58 781.021 742.004 778.995 745.214 776.495 747.717 775.1 750.22 773.704 751.362 772.624 755.596 772.648 759.829 772.672 760.256 774.189 761.748 775.242 763.24 776.295 763.807 777.366 764.549 778.963 765.292 780.561 766.004 783.025 766.205 784.827 766.407 786.63 765.792 789.098 765.755 789.779 765.721 790.46 770.413 791.28 772.212 791.58 774.01 791.88 775.283 792.771 776.549 791.58 777.815 790.388 778.609 786.681 779.808 784.429 781.007 782.178 782.921 778.849 785.077 776.889 787.231 774.93 790.11 773.099 792.739 772.672 795.367 772.246 798.978 772.752 800.852 774.327 802.726 775.903 803.459 779.459 803.981 782.126 804.503 784.793 804.056 787.25 803.981 790.326Z" fill="#614225" fill-rule="evenodd" transform="matrix(1.00017 0 0 1 244.043 -708.915)"/></g></g></g></g></svg>