<svg width="158" height="42" xmlns="http://www.w3.org/2000/svg" xmlns:xlink="http://www.w3.org/1999/xlink" overflow="hidden"><defs><clipPath id="clip0"><rect x="304" y="171" width="158" height="42"/></clipPath></defs><g clip-path="url(#clip0)" transform="translate(-304 -171)"><text fill="#FFFFFF" font-family="Moggly,Moggly_MSFontService,sans-serif" font-weight="400" font-size="220" transform="matrix(0.215927 0 0 0.215449 304.092 205)">Horek</text><path d="M399.87 95.9564C399.773 95.8869 399.681 95.9286 399.429 96.0058 399.179 96.0829 399.383 96.0286 398.356 96.4193L393.282 98.3496 392.215 98.7424 392.192 99.2871C392.166 100.167 392.633 101.5 392.116 102.789 391.597 104.079 390.337 105.9 389.079 107.022 387.822 108.144 386.316 109.032 384.567 109.522 382.814 110.012 380.257 110.118 378.573 109.961 376.884 109.805 375.2 109.387 374.448 108.585L374.438 108.553 373.992 108.844C373.656 109.066 373.419 109.255 373.361 109.444 373.242 109.822 373.841 110.003 374.526 110.304 375.213 110.604 376.488 111.037 377.477 111.245 378.463 111.454 379.137 111.557 380.44 111.554 381.746 111.55 383.678 111.537 385.299 111.224 386.921 110.912 388.961 110.174 390.167 109.679 391.373 109.183 391.632 108.931 392.536 108.252 393.441 107.573 394.783 106.408 395.599 105.604 396.413 104.8 396.861 104.233 397.43 103.429 397.996 102.624 398.612 101.649 399.002 100.777 399.392 99.9042 399.59 99.044 399.76 98.361 399.93 97.678 400.004 97.0797 400.021 96.679 400.04 96.2782 399.967 96.0258 399.87 95.9564ZM430.916 84.7073C430.28 84.6701 428.749 85.1969 427.444 85.8297 426.136 86.4627 424.14 87.7809 423.086 88.505 422.033 89.2291 421.686 89.6782 421.122 90.174 420.558 90.6698 419.987 91.0857 419.703 91.4801 419.418 91.8745 419.235 92.4125 419.412 92.54 419.591 92.6677 419.968 92.7886 420.358 92.932 420.745 93.0754 421.221 93.4224 421.74 93.4009 422.259 93.3791 422.563 93.2796 423.474 92.8021 424.385 92.3251 426.145 91.3048 427.209 90.5365 428.273 89.7682 429.182 88.9398 429.856 88.1925 430.53 87.4453 431.079 86.6333 431.256 86.0524 431.433 85.4715 431.551 84.7444 430.916 84.7073ZM430.789 82.4109C432.423 82.0592 432.942 82.6192 433.434 83.1923 433.927 83.7652 434.056 84.7808 433.746 85.8486 433.434 86.9163 432.736 88.4085 431.568 89.5989 430.399 90.7891 427.997 92.2227 426.737 92.991 425.479 93.7595 424.732 94.0012 424.019 94.2086L426.354 94.8336C426.354 94.8336 428.34 95.3286 429.078 95.5369 429.817 95.7451 430.67 96.0314 431.25 96.5466 431.829 97.062 432.376 97.9903 432.555 98.6291 432.731 99.268 432.871 99.9438 432.318 100.379 431.764 100.814 431.484 101.097 429.234 101.24 426.981 101.384 419.759 101.281 418.805 101.24 417.85 101.199 417.142 101.164 416.627 101.24 416.11 101.317 414.443 102.177 412.509 102.933L405.031 105.772C402.638 106.671 400.236 107.447 398.145 108.326 396.054 109.204 393.898 110.232 392.489 111.043 391.08 111.855 390.348 112.545 389.702 113.195 389.054 113.844 389 114.161 388.61 114.942 388.22 115.723 387.99 117.006 387.367 117.882 386.745 118.759 385.786 119.446 384.877 120.201 383.968 120.957 382.827 122.071 381.92 122.414 381.011 122.757 380.04 122.544 379.43 122.257 378.821 121.971 378.403 121.382 378.263 120.693 378.125 120.003 378.429 118.876 378.597 118.12 378.765 117.365 378.993 116.762 379.275 116.161 379.555 115.561 380.046 114.974 380.285 114.52 380.524 114.068 380.774 113.626 380.71 113.444 380.645 113.262 380.382 113.288 379.898 113.429 379.411 113.57 378.506 113.975 377.795 114.288 377.085 114.601 376.43 115.06 375.639 115.308 374.847 115.555 373.979 115.765 373.048 115.773 372.118 115.78 370.828 115.614 370.05 115.354 369.273 115.092 368.672 114.715 368.385 114.208 368.097 113.702 368.209 112.848 368.323 112.314 368.439 111.781 368.706 111.443 369.079 111.007 369.451 110.57 369.992 110.153 370.558 109.695 371.125 109.237 371.769 108.795 372.482 108.259 372.837 107.99 373.188 107.752 373.57 107.477L373.921 107.201 373.865 107.058C373.826 106.463 373.916 105.804 374.061 105.147 374.345 103.832 374.97 102.187 376.161 100.693 377.352 99.1995 379.4 98.0808 379.818 97.8807 380.238 97.681 380.117 97.6653 380.363 97.334 380.61 97.0023 381.052 96.2435 381.298 95.8918 381.545 95.5405 382.101 95.1063 382.534 94.8642 382.965 94.6221 383.163 94.4345 383.895 94.4388 384.63 94.4429 384.705 94.7063 384.961 94.889 385.22 95.0716 385.319 95.2577 385.446 95.5349 385.575 95.8121 385.698 96.2397 385.732 96.5524 385.769 96.8654 385.661 97.2938 385.655 97.412 385.65 97.5303 386.46 97.6724 386.773 97.7245 387.083 97.7766 387.302 97.9313 387.522 97.7245 387.742 97.5178 387.88 96.8742 388.086 96.4835 388.293 96.093 388.625 95.5149 388.998 95.175 389.37 94.8347 389.868 94.5172 390.322 94.4429 390.779 94.3688 391.403 94.4567 391.729 94.7305 392.054 95.0038 392.181 95.6211 392.269 96.0837L392.269 96.2741 392.892 96.0058 400.518 93.271C400.518 93.271 406.862 90.8749 409 90.1458 411.139 89.4165 411.839 89.104 413.36 88.8957 414.876 88.6872 417.092 88.9868 418.105 88.8957 419.117 88.8046 418.507 88.9478 419.427 88.3488 420.349 87.7498 421.738 86.2913 423.629 85.3018 425.522 84.3119 429.156 82.7624 430.789 82.4109Z" fill="#FFFFFF" fill-rule="evenodd" transform="matrix(1.00222 0 0 1 26.3474 89.5906)"/></g></svg>