<svg width="326" height="169" xmlns="http://www.w3.org/2000/svg" xmlns:xlink="http://www.w3.org/1999/xlink" overflow="hidden"><defs><clipPath id="clip0"><rect x="236" y="187" width="326" height="169"/></clipPath></defs><g clip-path="url(#clip0)" transform="translate(-236 -187)"><text font-family="Moggly,Moggly_MSFontService,sans-serif" font-weight="400" font-size="220" transform="matrix(0.866484 0 0 0.866927 235.887 325)">Horek</text><path d="M1608.18 385.913C1607.79 385.633 1607.42 385.801 1606.4 386.112 1605.4 386.422 1606.22 386.203 1602.09 387.775L1581.68 395.538 1577.39 397.118 1577.3 399.308C1577.19 402.849 1579.07 408.208 1577 413.393 1574.91 418.578 1569.84 425.903 1564.78 430.416 1559.72 434.93 1553.67 438.502 1546.63 440.471 1539.58 442.441 1529.3 442.866 1522.53 442.238 1515.74 441.609 1508.96 439.927 1505.94 436.701L1505.9 436.574 1504.1 437.742C1502.75 438.638 1501.8 439.398 1501.56 440.157 1501.09 441.675 1503.5 442.406 1506.25 443.614 1509.01 444.821 1514.14 446.564 1518.12 447.401 1522.09 448.239 1524.8 448.655 1530.04 448.641 1535.29 448.627 1543.06 448.574 1549.58 447.317 1556.1 446.06 1564.31 443.092 1569.16 441.1 1574.01 439.107 1575.05 438.094 1578.68 435.362 1582.32 432.631 1587.72 427.945 1591 424.712 1594.28 421.479 1596.08 419.2 1598.36 415.964 1600.64 412.729 1603.12 408.808 1604.69 405.299 1606.26 401.79 1607.05 398.33 1607.74 395.584 1608.42 392.837 1608.72 390.431 1608.79 388.819 1608.86 387.207 1608.57 386.192 1608.18 385.913ZM1733.04 340.672C1730.48 340.522 1724.32 342.641 1719.07 345.186 1713.82 347.732 1705.79 353.033 1701.55 355.945 1697.31 358.858 1695.92 360.664 1693.65 362.658 1691.38 364.652 1689.08 366.324 1687.94 367.91 1686.8 369.496 1686.06 371.66 1686.77 372.173 1687.49 372.687 1689.01 373.173 1690.57 373.75 1692.13 374.327 1694.05 375.722 1696.14 375.635 1698.22 375.548 1699.44 375.148 1703.11 373.227 1706.77 371.309 1713.85 367.205 1718.13 364.115 1722.41 361.026 1726.06 357.694 1728.78 354.688 1731.49 351.683 1733.7 348.418 1734.41 346.082 1735.12 343.745 1735.59 340.821 1733.04 340.672ZM1732.53 331.436C1739.1 330.022 1741.19 332.274 1743.16 334.579 1745.15 336.883 1745.67 340.967 1744.42 345.262 1743.16 349.556 1740.36 355.557 1735.66 360.345 1730.96 365.132 1721.3 370.897 1716.23 373.987 1711.17 377.078 1708.17 378.05 1705.3 378.884L1714.69 381.398C1714.69 381.398 1722.68 383.388 1725.65 384.226 1728.62 385.063 1732.05 386.215 1734.38 388.287 1736.71 390.359 1738.91 394.093 1739.63 396.662 1740.34 399.231 1740.9 401.95 1738.68 403.699 1736.45 405.449 1735.32 406.586 1726.27 407.164 1717.21 407.741 1688.17 407.329 1684.33 407.164 1680.49 406.999 1677.64 406.857 1675.57 407.164 1673.49 407.471 1666.79 410.931 1659.01 413.969L1628.93 425.389C1619.31 429.004 1609.65 432.125 1601.24 435.659 1592.83 439.192 1584.16 443.325 1578.49 446.589 1572.83 449.852 1569.88 452.627 1567.28 455.241 1564.68 457.853 1564.46 459.126 1562.89 462.268 1561.33 465.41 1560.4 470.567 1557.9 474.093 1555.39 477.618 1551.54 480.383 1547.88 483.42 1544.23 486.457 1539.64 490.94 1535.99 492.318 1532.33 493.697 1528.43 492.843 1525.97 491.69 1523.52 490.537 1521.84 488.17 1521.28 485.397 1520.73 482.624 1521.95 478.088 1522.62 475.051 1523.3 472.014 1524.22 469.586 1525.35 467.173 1526.48 464.759 1528.45 462.396 1529.41 460.573 1530.38 458.752 1531.38 456.974 1531.12 456.243 1530.86 455.511 1529.8 455.616 1527.85 456.182 1525.9 456.749 1522.26 458.38 1519.4 459.638 1516.54 460.899 1513.91 462.745 1510.73 463.74 1507.54 464.734 1504.05 465.579 1500.31 465.609 1496.57 465.64 1491.38 464.972 1488.25 463.924 1485.12 462.874 1482.71 461.354 1481.55 459.317 1480.39 457.28 1480.84 453.845 1481.3 451.699 1481.77 449.554 1482.85 448.196 1484.34 446.441 1485.84 444.686 1488.02 443.009 1490.29 441.168 1492.57 439.325 1495.16 437.547 1498.03 435.389 1499.46 434.309 1500.87 433.352 1502.4 432.247L1503.82 431.135 1503.59 430.561C1503.44 428.169 1503.8 425.52 1504.38 422.875 1505.52 417.586 1508.04 410.972 1512.83 404.964 1517.62 398.956 1525.85 394.457 1527.53 393.652 1529.22 392.849 1528.74 392.786 1529.73 391.454 1530.72 390.12 1532.5 387.068 1533.48 385.653 1534.48 384.24 1536.72 382.494 1538.46 381.521 1540.19 380.547 1540.99 379.792 1543.93 379.81 1546.89 379.826 1547.19 380.886 1548.22 381.62 1549.26 382.355 1549.66 383.103 1550.17 384.218 1550.69 385.333 1551.18 387.052 1551.32 388.31 1551.47 389.569 1551.03 391.292 1551.01 391.767 1550.99 392.243 1554.25 392.814 1555.5 393.024 1556.75 393.234 1557.64 393.856 1558.52 393.024 1559.4 392.192 1559.96 389.604 1560.79 388.033 1561.62 386.462 1562.95 384.137 1564.45 382.771 1565.95 381.402 1567.95 380.125 1569.78 379.826 1571.62 379.528 1574.13 379.882 1575.44 380.983 1576.74 382.082 1577.26 384.564 1577.61 386.425L1577.61 387.191 1580.11 386.112 1610.79 375.113C1610.79 375.113 1636.3 365.476 1644.9 362.544 1653.5 359.611 1656.32 358.354 1662.43 357.517 1668.53 356.678 1677.44 357.883 1681.51 357.517 1685.59 357.15 1683.13 357.726 1686.83 355.317 1690.54 352.908 1696.13 347.042 1703.73 343.063 1711.35 339.082 1725.96 332.85 1732.53 331.436Z" fill="#614225" fill-rule="evenodd" transform="matrix(1 0 0 1.00051 -878.662 -140.576)"/></g></svg>