<svg width="114" height="115" xmlns="http://www.w3.org/2000/svg" xmlns:xlink="http://www.w3.org/1999/xlink" overflow="hidden"><defs><clipPath id="clip0"><rect x="1276" y="-169" width="114" height="115"/></clipPath><clipPath id="clip1"><rect x="1276" y="-170" width="115" height="114"/></clipPath><clipPath id="clip2"><rect x="991" y="-190" width="496" height="134"/></clipPath><clipPath id="clip3"><rect x="991" y="-190" width="496" height="134"/></clipPath><clipPath id="clip4"><rect x="991" y="-190" width="494" height="134"/></clipPath></defs><g clip-path="url(#clip0)" transform="translate(-1276 169)"><path d="M1276-150C1276-160.493 1284.51-169 1295-169L1371-169C1381.49-169 1390-160.493 1390-150L1390-73.0004C1390-62.5068 1381.49-54 1371-54L1295-54C1284.51-54 1276-62.5068 1276-73.0004Z" fill="#FFFFFF" fill-rule="evenodd"/><g clip-path="url(#clip1)"><g clip-path="url(#clip2)"><g clip-path="url(#clip3)"><g clip-path="url(#clip4)"><text font-family="Moggly,Moggly_MSFontService,sans-serif" font-weight="400" font-size="220" transform="matrix(0.676372 0 0 0.682203 991.441 -81)">Horek</text><path d="M1255.33 301.241C1255.03 301.023 1254.74 301.154 1253.95 301.396 1253.16 301.638 1253.81 301.468 1250.58 302.695L1234.65 308.754 1231.3 309.988 1231.23 311.698C1231.15 314.461 1232.62 318.645 1230.99 322.692 1229.36 326.74 1225.41 332.457 1221.46 335.98 1217.51 339.504 1212.78 342.292 1207.29 343.829 1201.79 345.367 1193.76 345.698 1188.48 345.208 1183.17 344.717 1177.89 343.405 1175.53 340.886L1175.49 340.787 1174.09 341.699C1173.04 342.398 1172.29 342.991 1172.11 343.584 1171.74 344.769 1173.62 345.339 1175.77 346.282 1177.93 347.224 1181.93 348.585 1185.03 349.239 1188.13 349.892 1190.25 350.217 1194.34 350.206 1198.44 350.195 1204.5 350.154 1209.59 349.173 1214.68 348.192 1221.09 345.875 1224.87 344.32 1228.66 342.764 1229.47 341.973 1232.31 339.841 1235.15 337.709 1239.36 334.051 1241.93 331.528 1244.48 329.004 1245.89 327.225 1247.67 324.699 1249.45 322.174 1251.39 319.113 1252.61 316.374 1253.83 313.635 1254.46 310.934 1254.99 308.79 1255.52 306.646 1255.75 304.768 1255.81 303.51 1255.87 302.252 1255.64 301.459 1255.33 301.241ZM1352.8 265.926C1350.8 265.81 1346 267.463 1341.9 269.45 1337.79 271.437 1331.53 275.575 1328.22 277.849 1324.91 280.122 1323.82 281.532 1322.05 283.088 1320.28 284.645 1318.49 285.951 1317.6 287.189 1316.7 288.427 1316.13 290.116 1316.68 290.516 1317.24 290.917 1318.43 291.296 1319.65 291.747 1320.87 292.197 1322.36 293.286 1323.99 293.219 1325.62 293.15 1326.58 292.838 1329.44 291.339 1332.3 289.841 1337.82 286.638 1341.16 284.226 1344.5 281.814 1347.35 279.214 1349.47 276.868 1351.59 274.522 1353.31 271.973 1353.87 270.149 1354.42 268.326 1354.79 266.043 1352.8 265.926ZM1352.4 258.717C1357.53 257.613 1359.16 259.371 1360.7 261.17 1362.25 262.969 1362.66 266.157 1361.68 269.51 1360.7 272.861 1358.51 277.546 1354.85 281.283 1351.18 285.019 1343.64 289.52 1339.68 291.932 1335.73 294.345 1333.39 295.103 1331.15 295.754L1338.48 297.717C1338.48 297.717 1344.71 299.27 1347.03 299.924 1349.35 300.578 1352.03 301.477 1353.85 303.094 1355.66 304.712 1357.38 307.626 1357.94 309.632 1358.5 311.638 1358.94 313.759 1357.2 315.125 1355.46 316.491 1354.58 317.379 1347.52 317.83 1340.44 318.28 1317.77 317.958 1314.78 317.83 1311.78 317.701 1309.56 317.59 1307.94 317.83 1306.32 318.069 1301.08 320.771 1295.01 323.142L1271.54 332.056C1264.02 334.878 1256.48 337.314 1249.92 340.072 1243.35 342.831 1236.58 346.057 1232.16 348.604 1227.74 351.152 1225.44 353.318 1223.41 355.358 1221.38 357.397 1221.21 358.391 1219.98 360.844 1218.76 363.296 1218.04 367.322 1216.08 370.074 1214.13 372.825 1211.12 374.984 1208.27 377.354 1205.41 379.726 1201.83 383.225 1198.98 384.3 1196.13 385.376 1193.08 384.71 1191.17 383.81 1189.25 382.91 1187.94 381.062 1187.5 378.898 1187.07 376.734 1188.02 373.193 1188.55 370.822 1189.08 368.451 1189.79 366.556 1190.68 364.672 1191.56 362.788 1193.1 360.943 1193.85 359.52 1194.6 358.099 1195.39 356.711 1195.18 356.14 1194.98 355.569 1194.16 355.651 1192.63 356.093 1191.11 356.535 1188.27 357.808 1186.03 358.791 1183.8 359.775 1181.75 361.216 1179.27 361.993 1176.78 362.769 1174.05 363.428 1171.13 363.452 1168.21 363.475 1164.16 362.954 1161.72 362.136 1159.28 361.316 1157.39 360.13 1156.49 358.54 1155.59 356.95 1155.94 354.269 1156.3 352.594 1156.66 350.919 1157.5 349.859 1158.67 348.489 1159.84 347.12 1161.54 345.81 1163.32 344.373 1165.09 342.935 1167.12 341.547 1169.35 339.862 1170.47 339.019 1171.57 338.272 1172.77 337.41L1173.87 336.542 1173.69 336.093C1173.57 334.226 1173.86 332.158 1174.31 330.094 1175.2 325.965 1177.16 320.802 1180.9 316.112 1184.64 311.423 1191.07 307.91 1192.38 307.282 1193.7 306.656 1193.32 306.606 1194.09 305.566 1194.87 304.525 1196.26 302.143 1197.03 301.039 1197.81 299.936 1199.55 298.573 1200.91 297.813 1202.26 297.053 1202.88 296.464 1205.18 296.477 1207.49 296.49 1207.73 297.317 1208.53 297.89 1209.34 298.464 1209.65 299.048 1210.05 299.918 1210.46 300.788 1210.84 302.131 1210.95 303.112 1211.07 304.095 1210.73 305.44 1210.71 305.811 1210.69 306.182 1213.24 306.628 1214.22 306.792 1215.19 306.956 1215.88 307.441 1216.57 306.792 1217.26 306.143 1217.69 304.123 1218.34 302.896 1218.99 301.67 1220.03 299.855 1221.2 298.788 1222.37 297.72 1223.93 296.723 1225.36 296.49 1226.79 296.257 1228.75 296.533 1229.78 297.393 1230.8 298.251 1231.2 300.189 1231.47 301.641L1231.47 302.239 1233.43 301.396 1257.37 292.811C1257.37 292.811 1277.28 285.289 1284 283 1290.71 280.71 1292.91 279.729 1297.68 279.075 1302.44 278.421 1309.4 279.361 1312.58 279.075 1315.76 278.789 1313.84 279.239 1316.73 277.358 1319.63 275.478 1323.99 270.899 1329.92 267.793 1335.87 264.685 1347.27 259.821 1352.4 258.717Z" fill="#614225" fill-rule="evenodd" transform="matrix(1 0 0 1.00862 121.431 -447.211)"/></g></g></g></g></g></svg>