<svg width="732" height="195" xmlns="http://www.w3.org/2000/svg" xmlns:xlink="http://www.w3.org/1999/xlink" overflow="hidden"><defs><clipPath id="clip0"><rect x="-122" y="450" width="732" height="195"/></clipPath><clipPath id="clip1"><rect x="-122" y="450" width="729" height="195"/></clipPath><clipPath id="clip2"><rect x="-254" y="360" width="861" height="464"/></clipPath><clipPath id="clip3"><rect x="-254" y="360" width="861" height="464"/></clipPath></defs><g clip-path="url(#clip0)" transform="translate(122 -450)"><g clip-path="url(#clip1)"><g clip-path="url(#clip2)"><g clip-path="url(#clip3)"><text font-family="Moggly,Moggly_MSFontService,sans-serif" font-weight="400" font-size="220" transform="matrix(1.00037 0 0 1.0003 -121.574 609)">Horek</text><path d="M1856.54 445.512C1856.09 445.189 1855.66 445.383 1854.49 445.741 1853.33 446.099 1854.28 445.847 1849.51 447.661L1825.95 456.623 1821 458.447 1820.89 460.976C1820.77 465.063 1822.94 471.25 1820.54 477.236 1818.13 483.222 1812.28 491.678 1806.44 496.888 1800.6 502.099 1793.61 506.222 1785.49 508.496 1777.35 510.77 1765.48 511.26 1757.66 510.535 1749.82 509.809 1742 507.868 1738.51 504.143L1738.46 503.997 1736.39 505.345C1734.83 506.38 1733.73 507.257 1733.46 508.133 1732.91 509.886 1735.69 510.729 1738.87 512.124 1742.06 513.517 1747.98 515.529 1752.57 516.496 1757.15 517.463 1760.28 517.943 1766.33 517.927 1772.39 517.911 1781.36 517.85 1788.89 516.399 1796.42 514.948 1805.89 511.521 1811.49 509.222 1817.09 506.921 1818.29 505.751 1822.49 502.598 1826.69 499.445 1832.92 494.035 1836.71 490.303 1840.49 486.571 1842.57 483.939 1845.21 480.204 1847.84 476.469 1850.7 471.943 1852.51 467.892 1854.32 463.841 1855.24 459.847 1856.03 456.676 1856.82 453.505 1857.16 450.727 1857.24 448.867 1857.33 447.006 1856.99 445.834 1856.54 445.512ZM2000.68 393.284C1997.73 393.111 1990.62 395.557 1984.56 398.495 1978.49 401.434 1969.22 407.554 1964.33 410.916 1959.44 414.278 1957.83 416.363 1955.21 418.665 1952.59 420.967 1949.94 422.898 1948.62 424.729 1947.3 426.56 1946.45 429.058 1947.27 429.65 1948.1 430.243 1949.85 430.804 1951.66 431.47 1953.46 432.136 1955.67 433.747 1958.08 433.647 1960.49 433.546 1961.9 433.084 1966.13 430.867 1970.36 428.652 1978.53 423.915 1983.47 420.348 1988.41 416.781 1992.63 412.935 1995.76 409.465 1998.89 405.996 2001.44 402.226 2002.26 399.529 2003.08 396.832 2003.63 393.456 2000.68 393.284ZM2000.09 382.622C2007.68 380.989 2010.09 383.589 2012.37 386.25 2014.66 388.91 2015.26 393.625 2013.82 398.583 2012.37 403.54 2009.13 410.468 2003.71 415.995 1998.28 421.521 1987.13 428.177 1981.28 431.744 1975.44 435.312 1971.97 436.434 1968.66 437.397L1979.5 440.299C1979.5 440.299 1988.72 442.597 1992.15 443.564 1995.58 444.531 1999.54 445.86 2002.23 448.252 2004.92 450.645 2007.46 454.955 2008.29 457.921 2009.11 460.887 2009.76 464.025 2007.19 466.045 2004.62 468.065 2003.32 469.378 1992.87 470.045 1982.41 470.711 1948.88 470.235 1944.45 470.045 1940.02 469.854 1936.73 469.69 1934.34 470.045 1931.94 470.399 1924.2 474.394 1915.22 477.901L1880.5 491.084C1869.39 495.258 1858.24 498.861 1848.53 502.94 1838.82 507.019 1828.81 511.79 1822.27 515.558 1815.73 519.325 1812.33 522.529 1809.33 525.546 1806.32 528.562 1806.07 530.031 1804.26 533.659 1802.45 537.286 1801.38 543.24 1798.49 547.31 1795.6 551.379 1791.15 554.571 1786.93 558.077 1782.71 561.584 1777.41 566.759 1773.2 568.349 1768.98 569.941 1764.47 568.956 1761.64 567.624 1758.81 566.293 1756.87 563.561 1756.22 560.36 1755.58 557.159 1756.99 551.922 1757.77 548.416 1758.55 544.91 1759.61 542.107 1760.92 539.321 1762.22 536.535 1764.5 533.806 1765.61 531.702 1766.72 529.6 1767.88 527.547 1767.58 526.703 1767.28 525.858 1766.06 525.98 1763.81 526.633 1761.55 527.287 1757.35 529.17 1754.05 530.623 1750.75 532.078 1747.71 534.209 1744.04 535.358 1740.36 536.506 1736.33 537.481 1732.01 537.516 1727.69 537.551 1721.7 536.78 1718.09 535.57 1714.48 534.358 1711.69 532.604 1710.36 530.252 1709.02 527.9 1709.54 523.935 1710.07 521.458 1710.61 518.981 1711.85 517.414 1713.58 515.388 1715.31 513.362 1717.82 511.426 1720.45 509.3 1723.08 507.173 1726.07 505.12 1729.38 502.629 1731.03 501.382 1732.66 500.277 1734.43 499.002L1736.06 497.718 1735.8 497.055C1735.62 494.294 1736.04 491.235 1736.71 488.182 1738.03 482.076 1740.93 474.441 1746.46 467.505 1751.99 460.569 1761.5 455.375 1763.44 454.446 1765.39 453.519 1764.83 453.446 1765.97 451.908 1767.12 450.368 1769.17 446.845 1770.31 445.212 1771.46 443.581 1774.04 441.565 1776.05 440.441 1778.05 439.317 1778.97 438.446 1782.37 438.466 1785.78 438.485 1786.13 439.708 1787.32 440.556 1788.52 441.404 1788.98 442.268 1789.57 443.555 1790.17 444.842 1790.74 446.827 1790.9 448.279 1791.07 449.732 1790.57 451.721 1790.54 452.27 1790.52 452.819 1794.28 453.479 1795.73 453.721 1797.17 453.963 1798.19 454.681 1799.21 453.721 1800.23 452.761 1800.87 449.773 1801.83 447.959 1802.79 446.146 1804.33 443.462 1806.06 441.884 1807.79 440.304 1810.1 438.83 1812.21 438.485 1814.33 438.141 1817.23 438.549 1818.74 439.82 1820.25 441.089 1820.84 443.955 1821.25 446.103L1821.25 446.987 1824.14 445.741 1859.55 433.044C1859.55 433.044 1889 421.919 1898.93 418.534 1908.86 415.148 1912.11 413.697 1919.17 412.73 1926.21 411.762 1936.5 413.153 1941.2 412.73 1945.9 412.307 1943.07 412.972 1947.34 410.191 1951.62 407.41 1958.07 400.638 1966.85 396.044 1975.64 391.448 1992.51 384.254 2000.09 382.622Z" fill="#614225" fill-rule="evenodd" transform="matrix(1.00007 0 0 1 -1408.34 72.0276)"/></g></g></g></g></svg>